<?xml version="1.0" encoding="iso-8859-1"?>
<!-- Generator: Adobe Illustrator 19.0.0, SVG Export Plug-In . SVG Version: 6.00 Build 0)  -->
<svg version="1.1" id="Layer_1" xmlns="http://www.w3.org/2000/svg" xmlns:xlink="http://www.w3.org/1999/xlink" x="0px" y="0px"
	 viewBox="0 0 512 512" style="enable-background:new 0 0 512 512;" xml:space="preserve">
<path style="fill:#8D6A59;" d="M387.31,0H124.69c-23.502,0-42.553,19.052-42.553,42.553v426.893
	c0,23.502,19.052,42.553,42.553,42.553h262.62c23.502,0,42.553-19.052,42.553-42.553V42.553C429.864,19.052,410.812,0,387.31,0z"/>
<path style="fill:#E3637B;" d="M82.136,362.896v106.551c0,23.502,19.052,42.553,42.553,42.553H387.31
	c23.502,0,42.553-19.052,42.553-42.553V362.896H82.136z"/>
<path style="fill:#FFFFFF;" d="M367.214,467.62H144.786c-8.799,0-15.932-7.133-15.932-15.932v-71.286h254.292v71.286
	C383.146,460.487,376.013,467.62,367.214,467.62z"/>
<path style="opacity:0.1;enable-background:new    ;" d="M429.864,392.715v-12.312H98.935V25.754c0-7.432,1.91-14.416,5.258-20.496
	c-13.147,7.241-22.057,21.226-22.057,37.295v426.893c0,23.502,19.052,42.553,42.553,42.553H387.31
	c16.07,0,30.055-8.91,37.295-22.057c-6.08,3.349-13.064,5.258-20.496,5.258h-262.62c-23.502,0-42.553-19.052-42.553-42.553v-59.932
	H429.864z"/>
<path style="opacity:0.1;enable-background:new    ;" d="M144.786,46.718h73.092c8.799,0,15.932,7.133,15.932,15.932v73.092
	c0,8.799-7.133,15.932-15.932,15.932h-73.092c-8.799,0-15.932-7.133-15.932-15.932V62.65
	C128.854,53.851,135.987,46.718,144.786,46.718z"/>
<path style="opacity:0.1;enable-background:new    ;" d="M367.214,46.718h-73.092c-8.799,0-15.932,7.133-15.932,15.932v73.092
	c0,8.799,7.133,15.932,15.932,15.932h73.092c8.799,0,15.932-7.133,15.932-15.932V62.65
	C383.146,53.851,376.013,46.718,367.214,46.718z"/>
<path style="opacity:0.1;enable-background:new    ;" d="M144.786,196.054h73.092c8.799,0,15.932,7.133,15.932,15.932v73.092
	c0,8.799-7.133,15.932-15.932,15.932h-73.092c-8.799,0-15.932-7.133-15.932-15.932v-73.092
	C128.854,203.187,135.987,196.054,144.786,196.054z"/>
<path style="opacity:0.1;enable-background:new    ;" d="M367.214,196.054h-73.092c-8.799,0-15.932,7.133-15.932,15.932v73.092
	c0,8.799,7.133,15.932,15.932,15.932h73.092c8.799,0,15.932-7.133,15.932-15.932v-73.092
	C383.146,203.187,376.013,196.054,367.214,196.054z"/>
<g>
	<path style="fill:#394049;" d="M180.788,422.611c-4.142,0-7.5-3.358-7.5-7.5v-13.223c0-4.142,3.358-7.5,7.5-7.5s7.5,3.358,7.5,7.5
		v13.223C188.288,419.253,184.93,422.611,180.788,422.611z"/>
	<path style="fill:#394049;" d="M331.212,422.611c-4.142,0-7.5-3.358-7.5-7.5v-13.223c0-4.142,3.358-7.5,7.5-7.5s7.5,3.358,7.5,7.5
		v13.223C338.712,419.253,335.354,422.611,331.212,422.611z"/>
</g>
<g>
	<path style="fill:#E3637B;" d="M191.19,446.746h-20.805c-4.142,0-7.5-3.358-7.5-7.5s3.358-7.5,7.5-7.5h20.805
		c4.142,0,7.5,3.358,7.5,7.5S195.333,446.746,191.19,446.746z"/>
	<path style="fill:#E3637B;" d="M341.615,446.746H320.81c-4.142,0-7.5-3.358-7.5-7.5s3.358-7.5,7.5-7.5h20.805
		c4.142,0,7.5,3.358,7.5,7.5S345.757,446.746,341.615,446.746z"/>
</g>
<path style="fill:#394049;" d="M268.147,434.758c-4.582,0-8.801-1.576-12.147-4.215c-3.345,2.639-7.565,4.215-12.146,4.215
	c-10.833,0-19.646-8.814-19.646-19.647c0-4.142,3.358-7.5,7.5-7.5s7.5,3.358,7.5,7.5c0,2.562,2.084,4.647,4.646,4.647
	s4.646-2.085,4.646-4.647c0-4.142,3.358-7.5,7.5-7.5s7.5,3.358,7.5,7.5c0,2.562,2.085,4.647,4.647,4.647s4.646-2.085,4.646-4.647
	c0-4.142,3.358-7.5,7.5-7.5s7.5,3.358,7.5,7.5C287.793,425.944,278.979,434.758,268.147,434.758z"/>
<path style="fill:#D0D1D2;" d="M434.09,380.403H77.91c-5.554,0-10.056-4.502-10.056-10.056v-14.9
	c0-5.554,4.502-10.056,10.056-10.056h356.18c5.554,0,10.056,4.502,10.056,10.056v14.9C444.147,375.9,439.644,380.403,434.09,380.403
	z"/>
<g>
</g>
<g>
</g>
<g>
</g>
<g>
</g>
<g>
</g>
<g>
</g>
<g>
</g>
<g>
</g>
<g>
</g>
<g>
</g>
<g>
</g>
<g>
</g>
<g>
</g>
<g>
</g>
<g>
</g>
</svg>
