<svg id="Capa_1" enable-background="new 0 0 512 512" height="512" viewBox="0 0 512 512" width="512" xmlns="http://www.w3.org/2000/svg"><path d="m48.961 272.448c18.403-38.949 47.508-71.843 83.513-94.913-26.829-9.062-60.311-28.856-92.425-71.099-35.568-46.787-72.578 92.556 8.912 166.012z" fill="#e7e7e7"/><path d="m462.349 273.066c82.388-73.289 45.27-213.548 9.602-166.63-32.33 42.528-66.045 62.298-92.964 71.276 36.016 23.144 65.082 56.158 83.362 95.354z" fill="#e7e7e7"/><path d="m62.71 397.25c-.314-5.39-.407-10.839-.269-16.339 2.634-104.523 89.003-188.396 193.559-188.095 106.36.306 192.486 86.621 192.486 193.053 0 3.753-.108 7.481-.319 11.181-.556 9.702 7.051 17.913 16.769 17.913 8.457 0 15.553-6.289 16.674-14.671 1.406-10.511 2.097-21.247 2.018-32.161-.93-127.891-105.748-229.426-233.607-226.45-123.533 2.876-222.789 103.916-222.789 228.138 0 10.41.701 20.657 2.054 30.697 1.118 8.296 8.271 14.447 16.642 14.447h.006c9.638 0 17.337-8.091 16.776-17.713z" fill="#ff4755"/><path d="m106.092 165.797c-31.643 21.648-58.357 49.972-78.089 82.959 5.888 8.385 12.832 16.366 20.958 23.691 18.403-38.949 47.508-71.843 83.513-94.913-8.243-2.783-17.115-6.586-26.382-11.737z" fill="#cecece"/><path d="m405.491 166.026c-9.317 5.144-18.232 8.927-26.504 11.686 36.016 23.144 65.082 56.158 83.362 95.354 8.198-7.293 15.209-15.25 21.16-23.618-19.65-33.211-46.344-61.681-78.018-83.422z" fill="#cecece"/><path d="m464.935 414.963c8.457 0 15.553-6.289 16.674-14.671.731-5.469 1.265-11 1.601-16.584-7.307-122.04-109.457-217.036-233.191-214.156-118.897 2.768-215.289 96.478-222.355 214.265.342 5.623.88 11.192 1.622 16.698 1.118 8.296 8.272 14.447 16.642 14.447h.005c9.639 0 17.337-8.09 16.776-17.712-.314-5.39-.407-10.839-.269-16.339 2.635-104.523 89.004-188.396 193.56-188.095 106.36.306 192.486 86.621 192.486 193.053 0 3.753-.108 7.481-.319 11.181-.556 9.701 7.051 17.913 16.768 17.913z" fill="#fc2b3a"/></svg>