<svg id="Capa_1" enable-background="new 0 0 512 512" height="512" viewBox="0 0 512 512" width="512" xmlns="http://www.w3.org/2000/svg"><g id="XMLID_135_"><path id="XMLID_916_" d="m253.675 20.041c-68.38 0-208.559 88.41-219.955 108.749-21.135 37.724-33.72 82.784-33.72 127.21 0 68.38 26.629 132.667 74.981 181.019s112.639 74.981 181.019 74.981 132.667-26.629 181.019-74.981 74.981-112.639 74.981-181.019c0-47.632-12.921-93.278-37.105-132.936-10.534-17.274-152.84-103.023-221.22-103.023zm2.325 297.349c-33.851 0-61.39-27.54-61.39-61.39s27.539-61.39 61.39-61.39 61.39 27.54 61.39 61.39-27.539 61.39-61.39 61.39z" fill="#b1fff6"/><path id="XMLID_470_" d="m256 10c-.776 0-1.55.021-2.325.028v184.641c.773-.029 1.545-.059 2.325-.059 33.851 0 61.39 27.54 61.39 61.39s-27.539 61.39-61.39 61.39c-.78 0-1.552-.03-2.325-.059v194.641c.775.007 1.549.028 2.325.028 68.38 0 132.667-26.629 181.019-74.981s74.981-112.639 74.981-181.019c0-46.41-12.267-90.935-35.266-129.872-1.014-1.716-2.048-3.422-3.104-5.116-10.278-16.501-149.25-111.012-217.63-111.012z" fill="#75e2f8"/><path id="XMLID_896_" d="m473.63 121.02-.005.005c-9.279 10.189-22.014 16.745-35.754 17.808-9.016.698-19.006-.407-30.061-3.303-19.39-5.07-39.33-14.82-58.62-24.24-17.27-8.44-33.58-16.42-45.93-19.14-27.57-6.1-38.81.79-59.2 13.28-14.34 8.78-32.18 19.71-59.9 28.53-21.24 6.76-42.88 9.13-62.81 9.13-45.71 0-82.41-12.49-84.59-13.25l-3.04-1.05c11.366-19.799 25.491-38.198 42.165-54.71 47.991-47.529 112.571-74.08 180.115-74.08 68.38 0 132.67 26.63 181.02 74.98 14.09 14.09 26.34 29.54 36.61 46.04z" fill="#ffd0f2"/><path id="XMLID_74_" d="m128 367c7.846 0 15.363-6.899 15-15-.364-8.127-6.591-15-15-15-7.846 0-15.363 6.899-15 15 .364 8.127 6.591 15 15 15z" fill="#ffa2e5"/><path id="XMLID_75_" d="m355 389c7.846 0 15.363-6.899 15-15-.364-8.127-6.591-15-15-15-7.846 0-15.363 6.899-15 15 .364 8.127 6.591 15 15 15z" fill="#f979f3"/><path id="XMLID_76_" d="m391 190.875c7.846 0 15.363-6.899 15-15-.364-8.127-6.591-15-15-15-7.846 0-15.363 6.899-15 15 .364 8.127 6.591 15 15 15z" fill="#f979f3"/><path id="XMLID_452_" d="m437.02 74.98c-48.35-48.35-112.64-74.98-181.02-74.98-.776 0-1.55.021-2.325.028v99.623c15.007-8.654 26.645-12.577 49.585-7.501 12.35 2.72 28.66 10.7 45.93 19.14 19.29 9.42 39.23 19.17 58.62 24.24 11.056 2.896 21.045 4.001 30.061 3.303 13.74-1.063 26.475-7.619 35.754-17.808l.005-.005c-10.27-16.5-22.52-31.95-36.61-46.04z" fill="#ffa2e5"/><path id="XMLID_141_" d="m57.36 226.5h85.28v29.999h-85.28z" fill="#ffd0f2" transform="matrix(.145 -.99 .99 .145 -153.429 305.499)"/><path id="XMLID_139_" d="m235.155 371.499h30v85.279h-30z" fill="#ffd0f2" transform="matrix(.745 -.668 .668 .745 -212.581 272.844)"/><g fill="#f979f3"><path id="XMLID_138_" d="m397.984 241.882h30v85.28h-30z" transform="matrix(.988 -.158 .158 .988 -39.668 68.617)"/><path id="XMLID_148_" d="m253.675 395.597v44.934l13.782 15.367 22.334-20.03z"/></g></g></svg>